<svg width="20" height="20" viewBox="0 0 20 20" fill="none" xmlns="http://www.w3.org/2000/svg">
<path d="M12.7019 19.2227L12.7128 19.2303C13.6573 19.8317 14.7786 20.0928 15.8916 19.9706C17.0045 19.8484 18.0425 19.3501 18.8339 18.5581L19.5215 17.8706C19.6738 17.7183 19.7947 17.5375 19.8772 17.3385C19.9596 17.1395 20.0021 16.9262 20.0021 16.7108C20.0021 16.4954 19.9596 16.2821 19.8772 16.0832C19.7947 15.8842 19.6738 15.7034 19.5215 15.5511L16.6216 12.6534C16.4693 12.5011 16.2885 12.3802 16.0895 12.2977C15.8906 12.2153 15.6773 12.1728 15.4619 12.1728C15.2465 12.1728 15.0332 12.2153 14.8342 12.2977C14.6352 12.3802 14.4544 12.5011 14.3021 12.6534C13.9947 12.9608 13.5777 13.1335 13.1429 13.1335C12.7082 13.1335 12.2912 12.9608 11.9838 12.6534L7.34701 8.01558C7.03964 7.70811 6.86696 7.29115 6.86696 6.85639C6.86696 6.42163 7.03964 6.00467 7.34701 5.69721C7.49937 5.54494 7.62024 5.36415 7.7027 5.16516C7.78516 4.96616 7.82761 4.75287 7.82761 4.53747C7.82761 4.32207 7.78516 4.10878 7.7027 3.90979C7.62024 3.7108 7.49937 3.53 7.34701 3.37774L4.44823 0.480048C4.14076 0.172674 3.7238 0 3.28904 0C2.85428 0 2.43732 0.172674 2.12986 0.480048L1.44123 1.16758C0.64941 1.95915 0.151337 2.99717 0.0293093 4.11012C-0.0927182 5.22308 0.168603 6.34436 0.770094 7.28869L0.776652 7.29962C3.95327 11.9995 8.0014 16.0469 12.7019 19.2227Z" fill="white"/>
</svg>
