<svg width="26" height="24" viewBox="0 0 26 24" fill="none" xmlns="http://www.w3.org/2000/svg">
<g clip-path="url(#clip0_53_205)">
<path d="M7.8136 24.0268C12.1141 24.0268 15.6004 20.5508 15.6004 16.263C15.6004 11.9751 12.1141 8.49921 7.8136 8.49921C3.51311 8.49921 0.0268555 11.9751 0.0268555 16.263C0.0268555 20.5508 3.51311 24.0268 7.8136 24.0268Z" fill="#04E061"/>
<path d="M21.3215 23.0469C23.9201 23.0469 26.0267 20.9465 26.0267 18.3556C26.0267 15.7646 23.9201 13.6642 21.3215 13.6642C18.7228 13.6642 16.6162 15.7646 16.6162 18.3556C16.6162 20.9465 18.7228 23.0469 21.3215 23.0469Z" fill="#FF4053"/>
<path d="M9.30279 7.48711C10.9109 7.48711 12.2145 6.18735 12.2145 4.58401C12.2145 2.98067 10.9109 1.68091 9.30279 1.68091C7.69472 1.68091 6.39111 2.98067 6.39111 4.58401C6.39111 6.18735 7.69472 7.48711 9.30279 7.48711Z" fill="#965EEB"/>
<path d="M19.4935 12.6512C22.99 12.6512 25.8244 9.82511 25.8244 6.33898C25.8244 2.85281 22.99 0.0267334 19.4935 0.0267334C15.997 0.0267334 13.1626 2.85281 13.1626 6.33898C13.1626 9.82511 15.997 12.6512 19.4935 12.6512Z" fill="#00AAFF"/>
</g>
<defs>
<clipPath id="clip0_53_205">
<rect width="26" height="24" fill="white"/>
</clipPath>
</defs>
</svg>
