<svg width="6" height="11" viewBox="0 0 6 11" fill="none" xmlns="http://www.w3.org/2000/svg">
<g clip-path="url(#clip0_2031_1228)">
<path fill-rule="evenodd" clip-rule="evenodd" d="M0.200018 10.3539C0.420928 10.5489 0.778128 10.5489 0.998491 10.3539L5.66921 6.22195C5.77376 6.13087 5.85709 6.02124 5.91397 5.89975C5.97086 5.77825 6 5.64742 6 5.5152C6 5.38299 5.97086 5.25215 5.91397 5.13065C5.85709 5.00915 5.77376 4.89953 5.66921 4.80845L0.964667 0.645954C0.746485 0.453454 0.392975 0.450949 0.171521 0.640949C0.117977 0.686253 0.0752702 0.741149 0.0458107 0.802242C0.0163512 0.863334 0.000778656 0.929319 0.000267484 0.996112C-0.000243688 1.06291 0.0140934 1.12909 0.0426149 1.19055C0.071136 1.25202 0.113349 1.30746 0.166194 1.35345L4.47124 5.16195C4.52355 5.2075 4.56528 5.26232 4.59375 5.32309C4.62222 5.38386 4.6369 5.44931 4.6369 5.51545C4.6369 5.58159 4.62222 5.64703 4.59375 5.70781C4.56528 5.76858 4.52355 5.82341 4.47124 5.86895L0.200551 9.64745C0.148247 9.69295 0.1065 9.74774 0.0780369 9.80847C0.049574 9.8692 0.0348907 9.9346 0.0348907 10.0007C0.0348907 10.0668 0.049574 10.1322 0.0780368 10.1929C0.1065 10.2537 0.148247 10.3084 0.200551 10.3539" fill="#666666"/>
</g>
<defs>
<clipPath id="clip0_2031_1228">
<rect width="10" height="6" fill="white" transform="translate(6 0.5) rotate(90)"/>
</clipPath>
</defs>
</svg>
