<svg width="208" height="60" viewBox="0 0 208 60" fill="none" xmlns="http://www.w3.org/2000/svg">
<path fill-rule="evenodd" clip-rule="evenodd" d="M1.97576 1.97994L29.0775 2.06506L28.9973 19.0785L1.98767 19.0821L1.97576 1.97994ZM2.61157 56.3152L3.12793 59.6982L6.33357 59.8398L7.03922 56.2038L22.3419 56.1322L22.4689 54.3674L1.97576 54.3212L1.98211 20.9941H28.4341C30.3503 21.7976 27.4054 22.504 30.7444 22.4519L30.8281 1.82482C30.3836 -0.548221 27.6392 0.0714893 25.3174 0.0766602L4.52852 0.0718873C1.57013 0.0504082 0.200886 -0.323884 0.131034 2.82876C-0.214256 18.376 0.243347 35.8051 0.145317 51.807C0.140951 52.5389 0.0627729 54.4716 0.302889 55.0591C0.808521 56.2949 1.51577 55.8164 2.61157 56.3152Z" fill="white"/>
<path fill-rule="evenodd" clip-rule="evenodd" d="M26.2229 34.0978L26.3035 32.7955L51.3402 32.7983L51.4188 58.0247L49.9114 58.0577L26.2257 58.0521L26.2229 34.0978ZM33.2109 26.2834L51.416 26.2854L51.389 30.87L33.3312 30.8859L33.2109 26.2834ZM26.2063 26.2834L31.3261 26.2922L31.2991 30.87L26.3277 30.8875L26.2063 26.2834ZM24.5564 24.5703C24.1547 28.7269 24.027 57.8258 24.7156 59.6674C28.5685 60.2605 46.0116 59.8802 51.2092 59.8759C52.6492 59.8759 53.3187 59.8134 53.3187 58.3982C53.3187 51.795 53.6088 29.5411 53.1465 24.6208C49.6134 24.0599 28.5907 24.1502 24.5564 24.5703Z" fill="white"/>
<path fill-rule="evenodd" clip-rule="evenodd" d="M36.1897 37.5371C41.3163 35.5956 45.6225 39.1707 46.7556 42.7919C48.3452 47.8717 45.2348 52.2709 41.4219 53.3791C30.9862 56.414 25.6568 41.5262 36.1897 37.5371ZM36.8085 35.3828C23.5867 38.0641 27.442 58.1904 41.0445 55.3945C53.8258 52.7669 50.1724 32.6729 36.8085 35.3828Z" fill="white"/>
<path fill-rule="evenodd" clip-rule="evenodd" d="M5.08211 35.2114C6.22911 36.5944 7.66623 36.5304 8.52033 35.3554C7.98175 34.2329 7.77221 34.5209 6.70339 34.098L6.6403 26.4606C7.30071 24.9511 6.42914 26.6484 7.58924 25.7296C8.24608 25.2093 7.98057 26.2327 8.41992 24.7248C7.87262 24.1186 4.78088 22.3673 4.80986 27.4865C4.82335 29.8492 4.37169 33.1939 5.08211 35.2114Z" fill="white"/>
<path fill-rule="evenodd" clip-rule="evenodd" d="M4.82666 10.4918L5.15332 16.4105C6.23443 16.7987 7.23933 17.1742 8.32561 16.3937C8.30934 14.4821 8.09779 15.6094 6.64479 14.6571V9.79649C8.08747 8.86255 8.32403 10.0025 8.32363 8.06146C6.07051 6.46724 4.82666 8.17164 4.82666 10.4918Z" fill="white"/>
<path fill-rule="evenodd" clip-rule="evenodd" d="M34.1251 48.4594C34.4878 46.3282 33.1702 45.932 34.2092 43.3693C35.2185 40.8817 36.762 41.9202 36.5818 39.8189C32.761 38.332 29.5831 48.0517 34.1251 48.4594Z" fill="white"/>
<path fill-rule="evenodd" clip-rule="evenodd" d="M142.803 17.863C142.803 12.6641 147.103 8.41919 152.366 8.41919C157.659 8.41919 161.626 12.6949 161.626 17.863C161.626 23.0339 157.656 27.2838 152.366 27.2838C147.106 27.2838 142.803 23.0647 142.803 17.863ZM107.413 17.863C107.413 12.6722 111.636 8.44225 116.837 8.44225C120.251 8.44225 123.266 10.2548 124.924 12.9745L125.549 13.9994H123.014L122.814 13.7036C121.508 11.7718 119.306 10.4911 116.837 10.4911C112.789 10.4911 109.621 13.7757 109.621 17.863C109.621 21.9504 112.789 25.2349 116.837 25.2349C119.182 25.2349 121.275 24.103 122.601 22.3449L122.803 22.0775H125.387L124.673 23.1298C122.966 25.6462 120.101 27.2838 116.837 27.2838C111.636 27.2838 107.413 23.0543 107.413 17.863ZM99.42 8.74655H100.143L107.502 26.9329H105.116L102.713 20.9224H95.9427L93.5158 26.9329H91.1313L98.4906 8.74655H99.2102L99.3148 8.47659L99.42 8.74655ZM101.926 18.8735L99.3189 12.1878L96.7284 18.8735H101.926ZM187.438 8.74655H188.161L195.52 26.9329H193.134L190.731 20.9224H183.961L181.534 26.9329H179.149L186.509 8.74655H187.228L187.333 8.47659L187.438 8.74655ZM189.944 18.8735L187.337 12.1878L184.747 18.8735H189.944ZM170.166 8.77001H170.969L177.434 24.8841H178.305V26.9329H161.979V24.8841H162.85L169.315 8.77001H170.118L170.142 8.71029L170.166 8.77001ZM175.169 24.8841L170.142 12.328L165.115 24.8841H175.169ZM69.1597 8.77001H71.2973V16.6897L77.244 8.77001H79.9653L73.3273 17.4795L80.0507 26.9329H77.3687L72.0088 19.2275L71.2973 20.1903V26.9329H69.1597V8.77001ZM81.8719 8.77001H87.2578C90.1629 8.77001 92.4572 11.2609 92.4572 14.2613C92.4572 17.2572 90.1671 19.7764 87.2578 19.7764H84.0095V26.9329H81.8719V8.77001ZM127.593 8.77001H129.731V16.4878H138.094V8.77001H140.232V26.9329H138.094V18.5366H129.731V26.9329H127.593V8.77001ZM197.415 8.77001H202.801C205.706 8.77001 208 11.2609 208 14.2613C208 17.2572 205.71 19.7764 202.801 19.7764H199.552V26.9329H197.415V8.77001ZM152.366 10.468C148.306 10.468 145.01 13.7887 145.01 17.863C145.01 21.9348 148.303 25.2349 152.366 25.2349C156.395 25.2349 159.418 21.9692 159.418 17.863C159.418 13.7542 156.393 10.468 152.366 10.468ZM84.0095 10.8185H87.0245C88.7934 10.8185 90.2498 12.2867 90.2498 14.2613C90.2498 16.241 88.7885 17.7276 87.0245 17.7276H84.0095V10.8185ZM199.552 10.8185V17.7276H202.567C204.331 17.7276 205.793 16.241 205.793 14.2613C205.793 12.2867 204.336 10.8185 202.567 10.8185H199.552Z" fill="white"/>
<path d="M76.1773 36.4203L81.6968 50.2067H70.6578L76.1773 36.4203ZM69.3104 50.2067V50.8499H83.0446V50.2067H82.4457L76.5198 35.4343H75.8352L69.9093 50.2067H69.3104ZM84.6492 50.8499H85.8046L95.2604 35.97V50.8499H95.9879V35.4343H94.8325L85.3767 50.2496V35.4343H84.6492V50.8499ZM98.5978 43.1528C98.5978 39.0789 101.764 35.7771 105.829 35.7771C108.31 35.7771 110.514 37.0635 111.819 38.9934H112.717C111.305 36.6777 108.738 35.1339 105.829 35.1339C101.4 35.1339 97.8064 38.7361 97.8064 43.1528C97.8064 47.5695 101.4 51.1716 105.829 51.1716C108.61 51.1716 111.049 49.7779 112.503 47.634H111.605C110.279 49.3921 108.182 50.5281 105.829 50.5281C101.764 50.5281 98.5978 47.2263 98.5978 43.1528ZM114.536 50.8499H115.263V45.0823L116.547 43.3457L121.767 50.8499H122.708L116.975 42.788L122.58 35.4343H121.639L115.263 43.9244V35.4343H114.536V50.8499ZM130.859 35.7556C134.924 35.7556 137.941 39.0789 137.941 43.1528C137.941 47.2263 134.924 50.5281 130.859 50.5281C126.795 50.5281 123.5 47.2263 123.5 43.1528C123.5 39.0789 126.795 35.7556 130.859 35.7556ZM130.859 51.1716C135.352 51.1716 138.732 47.5695 138.732 43.1528C138.732 38.7361 135.352 35.1125 130.859 35.1125C126.367 35.1125 122.709 38.7361 122.709 43.1528C122.709 47.5695 126.367 51.1716 130.859 51.1716ZM150.904 50.8499V35.4343H150.177V42.5096H141.278V35.4343H140.55V50.8499H141.278V43.1528H150.177V50.8499H150.904ZM160.253 36.0774V35.4343H152.509V36.0774H155.996V50.8499H156.766V36.0774H160.253Z" fill="white"/>
<path fill-rule="evenodd" clip-rule="evenodd" d="M122.558 43.1528C122.558 38.6503 126.286 34.9609 130.86 34.9609C135.44 34.9609 138.884 38.6572 138.884 43.1528C138.884 47.6489 135.44 51.3232 130.86 51.3232C126.286 51.3232 122.558 47.6558 122.558 43.1528ZM130.86 35.264C126.449 35.264 122.86 38.8218 122.86 43.1528C122.86 47.4832 126.448 51.0201 130.86 51.0201C135.264 51.0201 138.581 47.4902 138.581 43.1528C138.581 38.8149 135.264 35.264 130.86 35.264ZM97.6556 43.1528C97.6556 38.6521 101.317 34.9824 105.829 34.9824C108.793 34.9824 111.408 36.555 112.847 38.9144L112.987 39.145H111.739L111.694 39.0785C110.415 37.1875 108.258 35.9287 105.829 35.9287C101.852 35.9287 98.7495 39.1591 98.7495 43.1528C98.7495 47.1461 101.852 50.3765 105.829 50.3765C108.133 50.3765 110.185 49.2647 111.485 47.5426L111.53 47.4824H112.79L112.629 47.7192C111.147 49.9031 108.662 51.3232 105.829 51.3232C101.317 51.3232 97.6556 47.6535 97.6556 43.1528ZM105.829 35.2855C101.484 35.2855 97.9581 38.82 97.9581 43.1528C97.9581 47.4856 101.484 51.0201 105.829 51.0201C108.455 51.0201 110.769 49.7548 112.212 47.7855H111.68C110.324 49.5453 108.205 50.6796 105.829 50.6796C101.678 50.6796 98.447 47.3065 98.447 43.1528C98.447 38.9988 101.678 35.6256 105.829 35.6256C108.335 35.6256 110.562 36.91 111.899 38.8419H112.443C111.031 36.6984 108.587 35.2855 105.829 35.2855ZM75.7335 35.2827H76.6225L82.5484 50.0551H83.1963V51.0014H69.1597V50.0551H69.8076L75.7335 35.2827ZM75.9379 35.5858L70.012 50.3582H69.4621V50.6983H82.8939V50.3582H82.344L76.4181 35.5858H75.9379ZM84.4985 35.2827H85.5284V49.7315L94.7502 35.2827H96.1395V51.0014H95.1096V36.4901L85.888 51.0014H84.4985V35.2827ZM84.8009 35.5858V50.6983H85.226V35.5858H84.8009ZM85.2703 50.6983H85.7221L95.3257 35.5858H94.9158L85.2703 50.6983ZM95.4121 35.5858V50.6983H95.8371V35.5858H95.4121ZM114.385 35.2827H115.415V43.4711L121.564 35.2827H122.886L117.163 42.7912L123.002 51.0014H121.688L116.544 43.6054L115.415 45.1324V51.0014H114.385V35.2827ZM114.688 35.5858V50.6983H115.113V45.0323L116.551 43.0861L121.846 50.6983H122.415L116.787 42.7849L122.275 35.5858H121.714L115.113 44.3779V35.5858H114.688ZM140.399 35.2827H141.429V42.3581H150.027V35.2827H151.056V51.0014H150.027V43.3044H141.429V51.0014H140.399V35.2827ZM140.702 35.5858V50.6983H141.127V43.0013H150.329V50.6983H150.754V35.5858H150.329V42.6612H141.127V35.5858H140.702ZM152.358 35.2827H160.405V36.229H156.918V51.0014H155.845V36.229H152.358V35.2827ZM152.661 35.5858V35.9259H156.148V50.6983H156.615V35.9259H160.102V35.5858H152.661ZM130.86 35.9072C126.879 35.9072 123.652 39.1621 123.652 43.1528C123.652 47.1426 126.878 50.3765 130.86 50.3765C134.833 50.3765 137.79 47.1503 137.79 43.1528C137.79 39.1543 134.833 35.9072 130.86 35.9072ZM123.349 43.1528C123.349 38.9958 126.711 35.6041 130.86 35.6041C135.016 35.6041 138.092 39.0036 138.092 43.1528C138.092 47.3022 135.015 50.6796 130.86 50.6796C126.711 50.6796 123.349 47.31 123.349 43.1528ZM76.1778 36.0134L81.9209 50.3582H70.4347L76.1778 36.0134ZM70.8819 50.0551L76.1778 36.8273L81.4737 50.0551H70.8819Z" fill="white"/>
</svg>
