<svg width="270" height="78" viewBox="0 0 270 78" fill="none" xmlns="http://www.w3.org/2000/svg">
<path fill-rule="evenodd" clip-rule="evenodd" d="M2.56468 2.57393L37.7448 2.68458L37.6407 24.802L2.58015 24.8067L2.56468 2.57393ZM3.39002 73.2098L4.06029 77.6076L8.22146 77.7917L9.13745 73.065L29.0015 72.9719L29.1664 70.6776L2.56468 70.6176L2.57294 27.2923H36.9097C39.397 28.3368 35.5743 29.2552 39.9086 29.1874L40.0173 2.37226C39.4403 -0.712687 35.8778 0.0929361 32.8639 0.0996583L5.87836 0.0934535C2.03815 0.0655307 0.260765 -0.42105 0.170092 3.67739C-0.278121 23.8888 0.315883 46.5466 0.188632 67.3491C0.182965 68.3005 0.081484 70.8131 0.393173 71.5768C1.04952 73.1834 1.96758 72.5613 3.39002 73.2098Z" fill="url(#paint0_linear_23_46)"/>
<path fill-rule="evenodd" clip-rule="evenodd" d="M34.0395 44.3273L34.1441 42.6343L66.6437 42.6379L66.7457 75.4322L64.789 75.4751L34.0431 75.4679L34.0395 44.3273ZM43.1104 34.1685L66.7421 34.1711L66.7071 40.1311L43.2666 40.1518L43.1104 34.1685ZM34.0179 34.1685L40.6638 34.1799L40.6288 40.1311L34.1755 40.1538L34.0179 34.1685ZM31.8762 31.9414C31.3549 37.345 31.189 75.1737 32.0829 77.5678C37.0843 78.3388 59.7268 77.8444 66.4737 77.8387C68.3428 77.8387 69.2119 77.7575 69.2119 75.9177C69.2119 67.3336 69.5885 38.4035 68.9883 32.0071C64.4021 31.278 37.1131 31.3954 31.8762 31.9414Z" fill="url(#paint1_linear_23_46)"/>
<path fill-rule="evenodd" clip-rule="evenodd" d="M46.9768 48.798C53.6315 46.2741 59.2213 50.9217 60.6921 55.6293C62.7554 62.233 58.7179 67.952 53.7685 69.3926C40.2222 73.338 33.3042 53.9839 46.9768 48.798ZM47.78 45.9975C30.617 49.4832 35.6215 75.6473 53.2786 72.0127C69.8697 68.5968 65.1274 42.4746 47.78 45.9975Z" fill="url(#paint2_linear_23_46)"/>
<path fill-rule="evenodd" clip-rule="evenodd" d="M6.59728 45.7746C8.08618 47.5725 9.95167 47.4893 11.0604 45.9618C10.3612 44.5026 10.0892 44.8769 8.70183 44.3273L8.61992 34.3987C9.4772 32.4363 8.34583 34.6427 9.85172 33.4482C10.7044 32.7719 10.3597 34.1024 10.93 32.1421C10.2196 31.354 6.20626 29.0773 6.24387 35.7322C6.26139 38.8037 5.6751 43.1519 6.59728 45.7746Z" fill="url(#paint3_linear_23_46)"/>
<path fill-rule="evenodd" clip-rule="evenodd" d="M6.26562 13.6391L6.68965 21.3334C8.09302 21.838 9.39746 22.3262 10.8075 21.3116C10.7864 18.8265 10.5118 20.2919 8.6257 19.054V12.7352C10.4984 11.5211 10.8055 13.0031 10.805 10.4797C7.88024 8.40718 6.26562 10.6229 6.26562 13.6391Z" fill="url(#paint4_linear_23_46)"/>
<path fill-rule="evenodd" clip-rule="evenodd" d="M44.2968 62.9972C44.7677 60.2267 43.0573 59.7117 44.406 56.3801C45.7161 53.1462 47.7197 54.4963 47.4858 51.7645C42.5261 49.8317 38.401 62.4672 44.2968 62.9972Z" fill="url(#paint5_linear_23_46)"/>
<path fill-rule="evenodd" clip-rule="evenodd" d="M185.369 23.222C185.369 16.4634 190.951 10.9451 197.782 10.9451C204.653 10.9451 209.802 16.5034 209.802 23.222C209.802 29.9442 204.65 35.469 197.782 35.469C190.954 35.469 185.369 29.9842 185.369 23.222ZM139.43 23.222C139.43 16.4739 144.911 10.9751 151.663 10.9751C156.095 10.9751 160.008 13.3313 162.161 16.8669L162.972 18.1993H159.681L159.422 17.8148C157.726 15.3034 154.869 13.6386 151.663 13.6386C146.409 13.6386 142.296 17.9085 142.296 23.222C142.296 28.5356 146.409 32.8055 151.663 32.8055C154.707 32.8055 157.424 31.334 159.145 29.0485L159.407 28.7008H162.762L161.835 30.0689C159.619 33.3401 155.9 35.469 151.663 35.469C144.911 35.469 139.43 29.9707 139.43 23.222ZM129.055 11.3706H129.993L139.546 35.0129H136.449L133.329 27.1992H124.541L121.391 35.0129H118.295L127.848 11.3706H128.782L128.918 11.0197L129.055 11.3706ZM132.308 24.5357L128.923 15.8443L125.561 24.5357H132.308ZM243.309 11.3706H244.247L253.8 35.0129H250.703L247.583 27.1992H238.795L235.645 35.0129H232.55L242.102 11.3706H243.037L243.172 11.0197L243.309 11.3706ZM246.562 24.5357L243.178 15.8443L239.815 24.5357H246.562ZM220.888 11.4011H221.931L230.323 32.3494H231.454V35.0129H210.261V32.3494H211.392L219.783 11.4011H220.826L220.857 11.3235L220.888 11.4011ZM227.383 32.3494L220.857 16.0266L214.332 32.3494H227.383ZM89.7744 11.4011H92.5492V21.6967L100.269 11.4011H103.801L95.1844 22.7235L103.912 35.0129H100.43L93.4729 24.9959L92.5492 26.2475V35.0129H89.7744V11.4011ZM106.276 11.4011H113.267C117.038 11.4011 120.016 14.6393 120.016 18.5398C120.016 22.4345 117.044 25.7095 113.267 25.7095H109.051V35.0129H106.276V11.4011ZM165.626 11.4011H168.4V21.4342H179.257V11.4011H182.032V35.0129H179.257V24.0977H168.4V35.0129H165.626V11.4011ZM256.259 11.4011H263.251C267.022 11.4011 270 14.6393 270 18.5398C270 22.4345 267.027 25.7095 263.251 25.7095H259.034V35.0129H256.259V11.4011ZM197.782 13.6086C192.512 13.6086 188.235 17.9255 188.235 23.222C188.235 28.5154 192.509 32.8055 197.782 32.8055C203.013 32.8055 206.937 28.5601 206.937 23.222C206.937 17.8806 203.009 13.6086 197.782 13.6086ZM109.051 14.0641H112.964C115.261 14.0641 117.151 15.9729 117.151 18.5398C117.151 21.1134 115.254 23.046 112.964 23.046H109.051V14.0641ZM259.034 14.0641V23.046H262.948C265.238 23.046 267.135 21.1134 267.135 18.5398C267.135 15.9729 265.244 14.0641 262.948 14.0641H259.034Z" fill="url(#paint6_linear_23_46)"/>
<path d="M98.8839 47.3463L106.049 65.2686H91.7192L98.8839 47.3463ZM89.9701 65.2686V66.1047H107.798V65.2686H107.021L99.3285 46.0645H98.4398L90.7475 65.2686H89.9701ZM109.881 66.1047H111.381L123.655 46.761V66.1047H124.599V46.0645H123.1L110.825 65.3245V46.0645H109.881V66.1047ZM127.987 56.0986C127.987 50.8025 132.098 46.5102 137.374 46.5102C140.595 46.5102 143.455 48.1825 145.149 50.6914H146.316C144.483 47.6809 141.15 45.6741 137.374 45.6741C131.625 45.6741 126.96 50.3568 126.96 56.0986C126.96 61.8403 131.625 66.5231 137.374 66.5231C140.984 66.5231 144.15 64.7112 146.038 61.9241H144.872C143.15 64.2096 140.429 65.6864 137.374 65.6864C132.098 65.6864 127.987 61.3941 127.987 56.0986ZM148.676 66.1047H149.621V58.607L151.287 56.3494L158.062 66.1047H159.285L151.842 55.6244L159.118 46.0645H157.896L149.621 57.1017V46.0645H148.676V66.1047ZM169.865 46.4823C175.141 46.4823 179.057 50.8025 179.057 56.0986C179.057 61.3941 175.141 65.6864 169.865 65.6864C164.589 65.6864 160.312 61.3941 160.312 56.0986C160.312 50.8025 164.589 46.4823 169.865 46.4823ZM169.865 66.5231C175.697 66.5231 180.085 61.8403 180.085 56.0986C180.085 50.3568 175.697 45.6461 169.865 45.6461C164.034 45.6461 159.285 50.3568 159.285 56.0986C159.285 61.8403 164.034 66.5231 169.865 66.5231ZM195.885 66.1047V46.0645H194.942V55.2624H183.389V46.0645H182.445V66.1047H183.389V56.0986H194.942V66.1047H195.885ZM208.021 46.9006V46.0645H197.968V46.9006H202.495V66.1047H203.494V46.9006H208.021Z" fill="url(#paint7_linear_23_46)"/>
<path fill-rule="evenodd" clip-rule="evenodd" d="M159.089 56.0986C159.089 50.2453 163.928 45.4492 169.866 45.4492C175.812 45.4492 180.282 50.2543 180.282 56.0986C180.282 61.9435 175.811 66.7201 169.866 66.7201C163.929 66.7201 159.089 61.9525 159.089 56.0986ZM169.866 45.8432C164.14 45.8432 159.482 50.4683 159.482 56.0986C159.482 61.7282 164.139 66.3261 169.866 66.3261C175.584 66.3261 179.889 61.7371 179.889 56.0986C179.889 50.4593 175.583 45.8432 169.866 45.8432ZM126.764 56.0986C126.764 50.2477 131.518 45.4771 137.374 45.4771C141.221 45.4771 144.616 47.5214 146.484 50.5887L146.666 50.8884H145.046L144.987 50.8019C143.328 48.3436 140.526 46.7072 137.374 46.7072C132.211 46.7072 128.184 50.9068 128.184 56.0986C128.184 61.2898 132.211 65.4894 137.374 65.4894C140.365 65.4894 143.029 64.0441 144.716 61.8053L144.775 61.7271H146.409L146.201 62.0349C144.278 64.8739 141.052 66.7201 137.374 66.7201C131.518 66.7201 126.764 61.9495 126.764 56.0986ZM137.374 45.8711C131.734 45.8711 127.157 50.466 127.157 56.0986C127.157 61.7312 131.734 66.3261 137.374 66.3261C140.782 66.3261 143.786 64.6811 145.66 62.1211H144.969C143.209 64.4089 140.459 65.8835 137.374 65.8835C131.985 65.8835 127.792 61.4983 127.792 56.0986C127.792 50.6983 131.985 46.3132 137.374 46.3132C140.628 46.3132 143.518 47.9829 145.253 50.4944H145.959C144.126 47.7079 140.954 45.8711 137.374 45.8711ZM98.3077 45.8675H99.4617L107.154 65.0716H107.995V66.3018H89.7744V65.0716H90.6155L98.3077 45.8675ZM98.573 46.2615L90.8808 65.4657H90.167V65.9078H107.602V65.4657H106.889L99.1964 46.2615H98.573ZM109.685 45.8675H111.022V64.6509L122.993 45.8675H124.796V66.3018H123.459V47.4371L111.489 66.3018H109.685V45.8675ZM110.078 46.2615V65.9078H110.63V46.2615H110.078ZM110.687 65.9078H111.274L123.74 46.2615H123.208L110.687 65.9078ZM123.852 46.2615V65.9078H124.404V46.2615H123.852ZM148.481 45.8675H149.818V56.5123L157.799 45.8675H159.516L152.087 55.6285L159.666 66.3018H157.961L151.282 56.6869L149.818 58.672V66.3018H148.481V45.8675ZM148.873 46.2615V65.9078H149.425V58.542L151.292 56.0118L158.166 65.9078H158.904L151.599 55.6204L158.722 46.2615H157.995L149.425 57.6912V46.2615H148.873ZM182.249 45.8675H183.586V55.0655H194.746V45.8675H196.082V66.3018H194.746V56.2956H183.586V66.3018H182.249V45.8675ZM182.642 46.2615V65.9078H183.193V55.9016H195.139V65.9078H195.69V46.2615H195.139V55.4595H183.193V46.2615H182.642ZM197.773 45.8675H208.218V47.0976H203.691V66.3018H202.299V47.0976H197.773V45.8675ZM198.165 46.2615V46.7036H202.692V65.9078H203.299V46.7036H207.825V46.2615H198.165ZM169.866 46.6793C164.699 46.6793 160.509 50.9106 160.509 56.0986C160.509 61.2853 164.698 65.4894 169.866 65.4894C175.024 65.4894 178.862 61.2954 178.862 56.0986C178.862 50.9005 175.023 46.6793 169.866 46.6793ZM160.117 56.0986C160.117 50.6945 164.48 46.2853 169.866 46.2853C175.261 46.2853 179.254 50.7046 179.254 56.0986C179.254 61.4928 175.26 65.8835 169.866 65.8835C164.481 65.8835 160.117 61.5029 160.117 56.0986ZM98.8845 46.8173L106.339 65.4657H91.4295L98.8845 46.8173ZM92.01 65.0716L98.8845 47.8754L105.759 65.0716H92.01Z" fill="url(#paint8_linear_23_46)"/>
<defs>
<linearGradient id="paint0_linear_23_46" x1="0" y1="38.8959" x2="40.0174" y2="38.8959" gradientUnits="userSpaceOnUse">
<stop stop-color="#0F345C"/>
<stop offset="1" stop-color="#2E869C"/>
</linearGradient>
<linearGradient id="paint1_linear_23_46" x1="31.4487" y1="54.748" x2="69.3286" y2="54.748" gradientUnits="userSpaceOnUse">
<stop stop-color="#0F345C"/>
<stop offset="1" stop-color="#2E869C"/>
</linearGradient>
<linearGradient id="paint2_linear_23_46" x1="37.1787" y1="59.0149" x2="63.5423" y2="59.0149" gradientUnits="userSpaceOnUse">
<stop stop-color="#0F345C"/>
<stop offset="1" stop-color="#2E869C"/>
</linearGradient>
<linearGradient id="paint3_linear_23_46" x1="6.07617" y1="39.1194" x2="11.0604" y2="39.1194" gradientUnits="userSpaceOnUse">
<stop stop-color="#0F345C"/>
<stop offset="1" stop-color="#2E869C"/>
</linearGradient>
<linearGradient id="paint4_linear_23_46" x1="6.26562" y1="15.7876" x2="10.8075" y2="15.7876" gradientUnits="userSpaceOnUse">
<stop stop-color="#0F345C"/>
<stop offset="1" stop-color="#2E869C"/>
</linearGradient>
<linearGradient id="paint5_linear_23_46" x1="41.395" y1="57.2804" x2="47.5046" y2="57.2804" gradientUnits="userSpaceOnUse">
<stop stop-color="#0F345C"/>
<stop offset="1" stop-color="#2E869C"/>
</linearGradient>
<linearGradient id="paint6_linear_23_46" x1="89.7744" y1="23.2071" x2="270" y2="23.2071" gradientUnits="userSpaceOnUse">
<stop stop-color="#0F345C"/>
<stop offset="1" stop-color="#2E869C"/>
</linearGradient>
<linearGradient id="paint7_linear_23_46" x1="89.7744" y1="56.0846" x2="208.218" y2="56.0846" gradientUnits="userSpaceOnUse">
<stop stop-color="#0F345C"/>
<stop offset="1" stop-color="#2E869C"/>
</linearGradient>
<linearGradient id="paint8_linear_23_46" x1="89.7744" y1="56.0846" x2="208.218" y2="56.0846" gradientUnits="userSpaceOnUse">
<stop stop-color="#0F345C"/>
<stop offset="1" stop-color="#2E869C"/>
</linearGradient>
</defs>
</svg>
