<svg width="20" height="21" viewBox="0 0 20 21" fill="none" xmlns="http://www.w3.org/2000/svg">
<path d="M16.8607 9.45606C16.8607 14.8349 11.3515 18.1486 10.2066 18.7798C10.1432 18.8148 10.0719 18.8332 9.99949 18.8332C9.92706 18.8332 9.85581 18.8148 9.79238 18.7798C8.64664 18.1486 3.13916 14.8349 3.13916 9.45606C3.13916 5.16809 5.71195 2.1665 9.99992 2.1665C14.2879 2.1665 16.8607 5.16809 16.8607 9.45606Z" stroke="#2E869C" stroke-width="1.4" stroke-linecap="round" stroke-linejoin="round"/>
<path d="M6.56934 9.02706C6.56934 9.93685 6.93075 10.8094 7.57407 11.4527C8.21739 12.096 9.08992 12.4574 9.99972 12.4574C10.9095 12.4574 11.782 12.096 12.4254 11.4527C13.0687 10.8094 13.4301 9.93685 13.4301 9.02706C13.4301 8.11727 13.0687 7.24474 12.4254 6.60141C11.782 5.95809 10.9095 5.59668 9.99972 5.59668C9.08992 5.59668 8.21739 5.95809 7.57407 6.60141C6.93075 7.24474 6.56934 8.11727 6.56934 9.02706V9.02706Z" stroke="#2E869C" stroke-width="1.4" stroke-linecap="round" stroke-linejoin="round"/>
</svg>
