<svg width="20" height="19" viewBox="0 0 20 19" fill="none" xmlns="http://www.w3.org/2000/svg">
<path d="M12.2514 17.0189L12.2605 17.0253C13.0476 17.5264 13.982 17.744 14.9095 17.6422C15.837 17.5403 16.7019 17.1251 17.3615 16.4651L17.9344 15.8921C18.0614 15.7653 18.1621 15.6146 18.2308 15.4488C18.2995 15.2829 18.3349 15.1052 18.3349 14.9257C18.3349 14.7462 18.2995 14.5685 18.2308 14.4026C18.1621 14.2368 18.0614 14.0861 17.9344 13.9593L15.5178 11.5445C15.3909 11.4175 15.2403 11.3168 15.0745 11.2481C14.9086 11.1794 14.7309 11.144 14.5514 11.144C14.3719 11.144 14.1941 11.1794 14.0283 11.2481C13.8625 11.3168 13.7118 11.4175 13.5849 11.5445C13.3287 11.8007 12.9813 11.9446 12.619 11.9446C12.2567 11.9446 11.9092 11.8007 11.653 11.5445L7.78901 7.67965C7.53287 7.42342 7.38897 7.07596 7.38897 6.71366C7.38897 6.35136 7.53287 6.00389 7.78901 5.74767C7.91598 5.62078 8.0167 5.47012 8.08542 5.3043C8.15414 5.13847 8.18951 4.96073 8.18951 4.78123C8.18951 4.60172 8.15414 4.42398 8.08542 4.25816C8.0167 4.09233 7.91598 3.94167 7.78901 3.81478L5.37336 1.40004C5.11714 1.14389 4.76967 1 4.40737 1C4.04507 1 3.69761 1.14389 3.44138 1.40004L2.86753 1.97298C2.20768 2.63262 1.79262 3.49764 1.69093 4.4251C1.58924 5.35256 1.80701 6.28697 2.30825 7.07391L2.31371 7.08302C4.9609 10.9996 8.33434 14.3724 12.2514 17.0189V17.0189Z" stroke="#2E869C" stroke-width="1.4" stroke-linecap="round" stroke-linejoin="round"/>
</svg>
