<svg width="15" height="15" viewBox="0 0 15 15" fill="none" xmlns="http://www.w3.org/2000/svg">
<path d="M10.8099 6.99274L5.50758 1.20768C5.38495 1.07377 5.22124 1 5.04668 1C4.87212 1 4.70841 1.07377 4.58577 1.20768L4.19529 1.63361C3.9412 1.91116 3.9412 2.36224 4.19529 2.63936L8.64781 7.4973L4.19035 12.3606C4.06771 12.4945 4 12.6731 4 12.8634C4 13.054 4.06771 13.2325 4.19035 13.3665L4.58083 13.7923C4.70356 13.9262 4.86718 14 5.04174 14C5.2163 14 5.38001 13.9262 5.50264 13.7923L10.8099 8.00198C10.9329 7.86764 11.0004 7.68829 11 7.49762C11.0004 7.30622 10.9329 7.12697 10.8099 6.99274Z" fill="#F8F8F8"/>
</svg>
