<svg width="60" height="60" viewBox="0 0 60 60" fill="none" xmlns="http://www.w3.org/2000/svg">
<g clip-path="url(#clip0_74_189)">
<path d="M30 0C26.5463 0.0171967 23.1559 0.92849 20.1589 2.64514C17.162 4.36178 14.6606 6.82528 12.8985 9.79571C11.1364 12.7662 10.1735 16.1423 10.1037 19.5954C10.0339 23.0484 10.8594 26.4607 12.5 29.5L29 59.35C29.1071 59.5484 29.2659 59.7142 29.4596 59.8297C29.6532 59.9453 29.8745 60.0063 30.1 60.0063C30.3255 60.0063 30.5468 59.9453 30.7405 59.8297C30.9341 59.7142 31.0929 59.5484 31.2 59.35L47.5 29.5C49.1406 26.4607 49.9662 23.0484 49.8964 19.5954C49.8265 16.1423 48.8637 12.7662 47.1015 9.79571C45.3394 6.82528 42.8381 4.36178 39.8411 2.64514C36.8442 0.92849 33.4538 0.0171967 30 0ZM30 30C28.0222 30 26.0888 29.4135 24.4443 28.3147C22.7998 27.2159 21.5181 25.6541 20.7612 23.8268C20.0044 21.9996 19.8063 19.9889 20.1922 18.0491C20.578 16.1093 21.5304 14.3275 22.929 12.9289C24.3275 11.5304 26.1093 10.578 28.0491 10.1921C29.9889 9.8063 31.9996 10.0043 33.8269 10.7612C35.6541 11.5181 37.2159 12.7998 38.3147 14.4443C39.4135 16.0888 40 18.0222 40 20C40 22.6522 38.9465 25.1957 37.0711 27.0711C35.1957 28.9464 32.6522 30 30 30Z" fill="#2E869C"/>
</g>
<defs>
<clipPath id="clip0_74_189">
<rect width="60" height="60" fill="white"/>
</clipPath>
</defs>
</svg>
